<?xml version="1.0" encoding="UTF-8" standalone="no"?>
<!DOCTYPE svg PUBLIC "-//W3C//DTD SVG 1.1//EN"
 "http://www.w3.org/Graphics/SVG/1.1/DTD/svg11.dtd">
<!-- Generated by graphviz version 2.47.0 (20210316.0004)
 -->
<!-- Title: dependencies Pages: 1 -->
<svg width="748pt" height="211pt"
 viewBox="0.00 0.00 748.00 211.00" xmlns="http://www.w3.org/2000/svg" xmlns:xlink="http://www.w3.org/1999/xlink">
<g id="graph0" class="graph" transform="scale(1 1) rotate(0) translate(4 207)">
<title>dependencies</title>
<polygon fill="white" stroke="transparent" points="-4,4 -4,-207 744,-207 744,4 -4,4"/>
<text text-anchor="start" x="349.01" y="-42.4" font-family="Times-12" font-weight="bold" font-size="14.00">Legend</text>
<polygon fill="#ffffb3" stroke="transparent" points="136,-10 136,-30 156,-30 156,-10 136,-10"/>
<text text-anchor="start" x="159.63" y="-15.4" font-family="Times-12" font-size="14.00"> &#160;Declarations</text>
<polygon fill="#8dd3c7" stroke="transparent" points="249,-10 249,-30 269,-30 269,-10 249,-10"/>
<text text-anchor="start" x="272.73" y="-15.4" font-family="Times-12" font-size="14.00"> &#160;Module</text>
<polygon fill="#80b1d3" stroke="transparent" points="335,-10 335,-30 355,-30 355,-10 335,-10"/>
<text text-anchor="start" x="358.78" y="-15.4" font-family="Times-12" font-size="14.00"> &#160;Bootstrap</text>
<polygon fill="#fdb462" stroke="transparent" points="432,-10 432,-30 452,-30 452,-10 432,-10"/>
<text text-anchor="start" x="455.67" y="-15.4" font-family="Times-12" font-size="14.00"> &#160;Providers</text>
<polygon fill="#fb8072" stroke="transparent" points="528,-10 528,-30 548,-30 548,-10 528,-10"/>
<text text-anchor="start" x="551.73" y="-15.4" font-family="Times-12" font-size="14.00"> &#160;Exports</text>
<g id="clust1" class="cluster">
<title>cluster_TodoModule</title>
<polygon fill="none" stroke="black" stroke-dasharray="1,5" points="8,-70 8,-195 732,-195 732,-70 8,-70"/>
</g>
<g id="clust6" class="cluster">
<title>cluster_TodoModule_providers</title>
<polygon fill="none" stroke="black" points="16,-78 16,-130 724,-130 724,-78 16,-78"/>
</g>
<!-- CreateService -->
<g id="node1" class="node">
<title>CreateService</title>
<ellipse fill="#fdb462" stroke="black" cx="651" cy="-104" rx="65.38" ry="18"/>
<text text-anchor="middle" x="651" y="-99.8" font-family="Times,serif" font-size="14.00">CreateService</text>
</g>
<!-- TodoModule -->
<g id="node6" class="node">
<title>TodoModule</title>
<polygon fill="#8dd3c7" stroke="black" points="408.6,-187 405.6,-191 384.6,-191 381.6,-187 319.4,-187 319.4,-151 408.6,-151 408.6,-187"/>
<text text-anchor="middle" x="364" y="-164.8" font-family="Times,serif" font-size="14.00">TodoModule</text>
</g>
<!-- CreateService&#45;&gt;TodoModule -->
<g id="edge1" class="edge">
<title>CreateService&#45;&gt;TodoModule</title>
<path fill="none" stroke="black" d="M651,-122.28C651,-143.32 651,-175 651,-175 651,-175 418.84,-175 418.84,-175"/>
<polygon fill="black" stroke="black" points="418.84,-171.5 408.84,-175 418.84,-178.5 418.84,-171.5"/>
</g>
<!-- DeleteService -->
<g id="node2" class="node">
<title>DeleteService</title>
<ellipse fill="#fdb462" stroke="black" cx="503" cy="-104" rx="65.38" ry="18"/>
<text text-anchor="middle" x="503" y="-99.8" font-family="Times,serif" font-size="14.00">DeleteService</text>
</g>
<!-- DeleteService&#45;&gt;TodoModule -->
<g id="edge2" class="edge">
<title>DeleteService&#45;&gt;TodoModule</title>
<path fill="none" stroke="black" d="M503,-122.02C503,-139.37 503,-163 503,-163 503,-163 418.75,-163 418.75,-163"/>
<polygon fill="black" stroke="black" points="418.75,-159.5 408.75,-163 418.75,-166.5 418.75,-159.5"/>
</g>
<!-- EditService -->
<g id="node3" class="node">
<title>EditService</title>
<ellipse fill="#fdb462" stroke="black" cx="364" cy="-104" rx="56.17" ry="18"/>
<text text-anchor="middle" x="364" y="-99.8" font-family="Times,serif" font-size="14.00">EditService</text>
</g>
<!-- EditService&#45;&gt;TodoModule -->
<g id="edge3" class="edge">
<title>EditService&#45;&gt;TodoModule</title>
<path fill="none" stroke="black" d="M364,-122.11C364,-122.11 364,-140.99 364,-140.99"/>
<polygon fill="black" stroke="black" points="360.5,-140.99 364,-150.99 367.5,-140.99 360.5,-140.99"/>
</g>
<!-- IndexService -->
<g id="node4" class="node">
<title>IndexService</title>
<ellipse fill="#fdb462" stroke="black" cx="228" cy="-104" rx="61.96" ry="18"/>
<text text-anchor="middle" x="228" y="-99.8" font-family="Times,serif" font-size="14.00">IndexService</text>
</g>
<!-- IndexService&#45;&gt;TodoModule -->
<g id="edge4" class="edge">
<title>IndexService&#45;&gt;TodoModule</title>
<path fill="none" stroke="black" d="M228,-122.02C228,-139.37 228,-163 228,-163 228,-163 309.09,-163 309.09,-163"/>
<polygon fill="black" stroke="black" points="309.09,-166.5 319.09,-163 309.09,-159.5 309.09,-166.5"/>
</g>
<!-- ShowService -->
<g id="node5" class="node">
<title>ShowService</title>
<ellipse fill="#fdb462" stroke="black" cx="86" cy="-104" rx="61.98" ry="18"/>
<text text-anchor="middle" x="86" y="-99.8" font-family="Times,serif" font-size="14.00">ShowService</text>
</g>
<!-- ShowService&#45;&gt;TodoModule -->
<g id="edge5" class="edge">
<title>ShowService&#45;&gt;TodoModule</title>
<path fill="none" stroke="black" d="M86,-122.28C86,-143.32 86,-175 86,-175 86,-175 309.33,-175 309.33,-175"/>
<polygon fill="black" stroke="black" points="309.33,-178.5 319.33,-175 309.33,-171.5 309.33,-178.5"/>
</g>
</g>
</svg>
