<?xml version="1.0" encoding="UTF-8" standalone="no"?>
<!DOCTYPE svg PUBLIC "-//W3C//DTD SVG 1.1//EN"
 "http://www.w3.org/Graphics/SVG/1.1/DTD/svg11.dtd">
<!-- Generated by graphviz version 2.47.0 (20210316.0004)
 -->
<!-- Title: dependencies Pages: 1 -->
<svg width="1236pt" height="290pt"
 viewBox="0.00 0.00 1236.00 290.00" xmlns="http://www.w3.org/2000/svg" xmlns:xlink="http://www.w3.org/1999/xlink">
<g id="graph0" class="graph" transform="scale(1 1) rotate(0) translate(4 286)">
<title>dependencies</title>
<polygon fill="white" stroke="transparent" points="-4,4 -4,-286 1232,-286 1232,4 -4,4"/>
<text text-anchor="start" x="593.01" y="-42.4" font-family="Times-12" font-weight="bold" font-size="14.00">Legend</text>
<polygon fill="#ffffb3" stroke="transparent" points="380,-10 380,-30 400,-30 400,-10 380,-10"/>
<text text-anchor="start" x="403.63" y="-15.4" font-family="Times-12" font-size="14.00"> &#160;Declarations</text>
<polygon fill="#8dd3c7" stroke="transparent" points="493,-10 493,-30 513,-30 513,-10 493,-10"/>
<text text-anchor="start" x="516.73" y="-15.4" font-family="Times-12" font-size="14.00"> &#160;Module</text>
<polygon fill="#80b1d3" stroke="transparent" points="579,-10 579,-30 599,-30 599,-10 579,-10"/>
<text text-anchor="start" x="602.78" y="-15.4" font-family="Times-12" font-size="14.00"> &#160;Bootstrap</text>
<polygon fill="#fdb462" stroke="transparent" points="676,-10 676,-30 696,-30 696,-10 676,-10"/>
<text text-anchor="start" x="699.67" y="-15.4" font-family="Times-12" font-size="14.00"> &#160;Providers</text>
<polygon fill="#fb8072" stroke="transparent" points="772,-10 772,-30 792,-30 792,-10 772,-10"/>
<text text-anchor="start" x="795.73" y="-15.4" font-family="Times-12" font-size="14.00"> &#160;Exports</text>
<g id="clust1" class="cluster">
<title>cluster_AppModule</title>
<polygon fill="none" stroke="black" stroke-dasharray="1,5" points="8,-70 8,-266 392,-266 392,-70 8,-70"/>
</g>
<g id="clust3" class="cluster">
<title>cluster_AppModule_imports</title>
<polygon fill="none" stroke="black" points="48,-146 48,-198 384,-198 384,-146 48,-146"/>
</g>
<g id="clust6" class="cluster">
<title>cluster_AppModule_providers</title>
<polygon fill="none" stroke="black" points="16,-78 16,-130 294,-130 294,-78 16,-78"/>
</g>
<g id="clust7" class="cluster">
<title>cluster_HealthModule</title>
<polygon fill="none" stroke="black" stroke-dasharray="1,5" points="400,-70 400,-138 636,-138 636,-70 400,-70"/>
</g>
<g id="clust12" class="cluster">
<title>cluster_HealthModule_providers</title>
<polygon fill="none" stroke="black" points="408,-78 408,-130 628,-130 628,-78 408,-78"/>
</g>
<g id="clust13" class="cluster">
<title>cluster_PrismaModule</title>
<polygon fill="none" stroke="black" stroke-dasharray="1,5" points="400,-206 400,-274 532,-274 532,-206 400,-206"/>
</g>
<g id="clust16" class="cluster">
<title>cluster_PrismaModule_exports</title>
<polygon fill="none" stroke="black" points="408,-214 408,-266 524,-266 524,-214 408,-214"/>
</g>
<g id="clust19" class="cluster">
<title>cluster_TodoModule</title>
<polygon fill="none" stroke="black" stroke-dasharray="1,5" points="644,-70 644,-138 1220,-138 1220,-70 644,-70"/>
</g>
<g id="clust24" class="cluster">
<title>cluster_TodoModule_providers</title>
<polygon fill="none" stroke="black" points="652,-78 652,-130 1212,-130 1212,-78 652,-78"/>
</g>
<!-- HealthModule -->
<g id="node1" class="node">
<title>HealthModule</title>
<polygon fill="#8dd3c7" stroke="black" points="152.37,-190 149.37,-194 128.37,-194 125.37,-190 55.63,-190 55.63,-154 152.37,-154 152.37,-190"/>
<text text-anchor="middle" x="104" y="-167.8" font-family="Times,serif" font-size="14.00">HealthModule</text>
</g>
<!-- AppModule -->
<g id="node4" class="node">
<title>AppModule</title>
<polygon fill="#8dd3c7" stroke="black" points="145.66,-258 142.66,-262 121.66,-262 118.66,-258 62.34,-258 62.34,-222 145.66,-222 145.66,-258"/>
<text text-anchor="middle" x="104" y="-235.8" font-family="Times,serif" font-size="14.00">AppModule</text>
</g>
<!-- HealthModule&#45;&gt;AppModule -->
<g id="edge1" class="edge">
<title>HealthModule&#45;&gt;AppModule</title>
<path fill="none" stroke="black" d="M104,-190.22C104,-190.22 104,-211.73 104,-211.73"/>
<polygon fill="black" stroke="black" points="100.5,-211.73 104,-221.73 107.5,-211.73 100.5,-211.73"/>
</g>
<!-- PrismaModule -->
<g id="node2" class="node">
<title>PrismaModule</title>
<polygon fill="#8dd3c7" stroke="black" points="376.43,-190 373.43,-194 352.43,-194 349.43,-190 277.57,-190 277.57,-154 376.43,-154 376.43,-190"/>
<text text-anchor="middle" x="327" y="-167.8" font-family="Times,serif" font-size="14.00">PrismaModule</text>
</g>
<!-- PrismaModule&#45;&gt;AppModule -->
<g id="edge2" class="edge">
<title>PrismaModule&#45;&gt;AppModule</title>
<path fill="none" stroke="black" d="M310.59,-190.32C310.59,-213.66 310.59,-251 310.59,-251 310.59,-251 155.81,-251 155.81,-251"/>
<polygon fill="black" stroke="black" points="155.81,-247.5 145.81,-251 155.81,-254.5 155.81,-247.5"/>
</g>
<!-- PrismaService  -->
<g id="node8" class="node">
<title>PrismaService </title>
<polygon fill="#fb8072" stroke="black" points="516.36,-258 415.64,-258 415.64,-222 516.36,-222 516.36,-258"/>
<text text-anchor="middle" x="466" y="-235.8" font-family="Times,serif" font-size="14.00">PrismaService </text>
</g>
<!-- PrismaModule&#45;&gt;PrismaService  -->
<g id="edge7" class="edge">
<title>PrismaModule&#45;&gt;PrismaService </title>
<path fill="none" stroke="black" stroke-dasharray="5,2" d="M343.41,-190.11C343.41,-209.34 343.41,-237 343.41,-237 343.41,-237 405.78,-237 405.78,-237"/>
<polygon fill="black" stroke="black" points="405.78,-240.5 415.78,-237 405.78,-233.5 405.78,-240.5"/>
</g>
<!-- TodoModule -->
<g id="node3" class="node">
<title>TodoModule</title>
<polygon fill="#8dd3c7" stroke="black" points="259.6,-190 256.6,-194 235.6,-194 232.6,-190 170.4,-190 170.4,-154 259.6,-154 259.6,-190"/>
<text text-anchor="middle" x="215" y="-167.8" font-family="Times,serif" font-size="14.00">TodoModule</text>
</g>
<!-- TodoModule&#45;&gt;AppModule -->
<g id="edge3" class="edge">
<title>TodoModule&#45;&gt;AppModule</title>
<path fill="none" stroke="black" d="M215,-190.17C215,-211.5 215,-244 215,-244 215,-244 155.96,-244 155.96,-244"/>
<polygon fill="black" stroke="black" points="155.96,-240.5 145.96,-244 155.96,-247.5 155.96,-240.5"/>
</g>
<!-- AppService -->
<g id="node5" class="node">
<title>AppService</title>
<ellipse fill="#fdb462" stroke="black" cx="81" cy="-104" rx="56.74" ry="18"/>
<text text-anchor="middle" x="81" y="-99.8" font-family="Times,serif" font-size="14.00">AppService</text>
</g>
<!-- AppService&#45;&gt;AppModule -->
<g id="edge4" class="edge">
<title>AppService&#45;&gt;AppModule</title>
<path fill="none" stroke="black" d="M39.97,-116.55C39.97,-150.22 39.97,-240 39.97,-240 39.97,-240 52.01,-240 52.01,-240"/>
<polygon fill="black" stroke="black" points="52.01,-243.5 62.01,-240 52.01,-236.5 52.01,-243.5"/>
</g>
<!-- CreateService -->
<g id="node6" class="node">
<title>CreateService</title>
<ellipse fill="#fdb462" stroke="black" cx="221" cy="-104" rx="65.38" ry="18"/>
<text text-anchor="middle" x="221" y="-99.8" font-family="Times,serif" font-size="14.00">CreateService</text>
</g>
<!-- CreateService&#45;&gt;TodoModule -->
<g id="edge8" class="edge">
<title>CreateService&#45;&gt;TodoModule</title>
<path fill="none" stroke="black" d="M185.3,-119.09C185.3,-119.09 185.3,-143.56 185.3,-143.56"/>
<polygon fill="black" stroke="black" points="181.8,-143.56 185.3,-153.56 188.8,-143.56 181.8,-143.56"/>
</g>
<!-- CreateService&#45;&gt;AppModule -->
<g id="edge5" class="edge">
<title>CreateService&#45;&gt;AppModule</title>
<path fill="none" stroke="black" d="M163.13,-112.66C163.13,-141.13 163.13,-230 163.13,-230 163.13,-230 155.71,-230 155.71,-230"/>
<polygon fill="black" stroke="black" points="155.71,-226.5 145.71,-230 155.71,-233.5 155.71,-226.5"/>
</g>
<!-- PrismaIndicatorService -->
<g id="node7" class="node">
<title>PrismaIndicatorService</title>
<ellipse fill="#fdb462" stroke="black" cx="518" cy="-104" rx="101.84" ry="18"/>
<text text-anchor="middle" x="518" y="-99.8" font-family="Times,serif" font-size="14.00">PrismaIndicatorService</text>
</g>
<!-- PrismaIndicatorService&#45;&gt;HealthModule -->
<g id="edge6" class="edge">
<title>PrismaIndicatorService&#45;&gt;HealthModule</title>
<path fill="none" stroke="black" d="M466.26,-119.61C466.26,-124.19 466.26,-128 466.26,-128 466.26,-128 145.03,-128 145.03,-128 145.03,-128 145.03,-143.85 145.03,-143.85"/>
<polygon fill="black" stroke="black" points="141.53,-143.85 145.03,-153.85 148.53,-143.85 141.53,-143.85"/>
</g>
<!-- DeleteService -->
<g id="node9" class="node">
<title>DeleteService</title>
<ellipse fill="#fdb462" stroke="black" cx="855" cy="-104" rx="65.38" ry="18"/>
<text text-anchor="middle" x="855" y="-99.8" font-family="Times,serif" font-size="14.00">DeleteService</text>
</g>
<!-- DeleteService&#45;&gt;TodoModule -->
<g id="edge9" class="edge">
<title>DeleteService&#45;&gt;TodoModule</title>
<path fill="none" stroke="black" d="M855,-122.19C855,-130.28 855,-138 855,-138 855,-138 215,-138 215,-138 215,-138 215,-143.81 215,-143.81"/>
<polygon fill="black" stroke="black" points="211.5,-143.81 215,-153.81 218.5,-143.81 211.5,-143.81"/>
</g>
<!-- EditService -->
<g id="node10" class="node">
<title>EditService</title>
<ellipse fill="#fdb462" stroke="black" cx="716" cy="-104" rx="56.17" ry="18"/>
<text text-anchor="middle" x="716" y="-99.8" font-family="Times,serif" font-size="14.00">EditService</text>
</g>
<!-- EditService&#45;&gt;TodoModule -->
<g id="edge10" class="edge">
<title>EditService&#45;&gt;TodoModule</title>
<path fill="none" stroke="black" d="M716,-122.2C716,-128.03 716,-133 716,-133 716,-133 200.15,-133 200.15,-133 200.15,-133 200.15,-143.87 200.15,-143.87"/>
<polygon fill="black" stroke="black" points="196.65,-143.87 200.15,-153.87 203.65,-143.87 196.65,-143.87"/>
</g>
<!-- IndexService -->
<g id="node11" class="node">
<title>IndexService</title>
<ellipse fill="#fdb462" stroke="black" cx="1142" cy="-104" rx="61.96" ry="18"/>
<text text-anchor="middle" x="1142" y="-99.8" font-family="Times,serif" font-size="14.00">IndexService</text>
</g>
<!-- IndexService&#45;&gt;TodoModule -->
<g id="edge11" class="edge">
<title>IndexService&#45;&gt;TodoModule</title>
<path fill="none" stroke="black" d="M1142,-122.04C1142,-134.56 1142,-149 1142,-149 1142,-149 244.7,-149 244.7,-149 244.7,-149 244.7,-149.49 244.7,-149.49"/>
<polygon fill="black" stroke="black" points="241.2,-143.88 244.7,-153.88 248.2,-143.88 241.2,-143.88"/>
</g>
<!-- ShowService -->
<g id="node12" class="node">
<title>ShowService</title>
<ellipse fill="#fdb462" stroke="black" cx="1000" cy="-104" rx="61.98" ry="18"/>
<text text-anchor="middle" x="1000" y="-99.8" font-family="Times,serif" font-size="14.00">ShowService</text>
</g>
<!-- ShowService&#45;&gt;TodoModule -->
<g id="edge12" class="edge">
<title>ShowService&#45;&gt;TodoModule</title>
<path fill="none" stroke="black" d="M1000,-122.13C1000,-132.71 1000,-144 1000,-144 1000,-144 229.85,-144 229.85,-144 229.85,-144 229.85,-144.98 229.85,-144.98"/>
<polygon fill="black" stroke="black" points="226.35,-143.79 229.85,-153.79 233.35,-143.79 226.35,-143.79"/>
</g>
</g>
</svg>
